<?xml version="1.0" encoding="utf-8"?><svg viewBox="0 0 800 800" xmlns="http://www.w3.org/2000/svg" xmlns:xlink="http://www.w3.org/1999/xlink"><style>:root>svg{display:none}:root>svg:target{display:block}</style><svg fill="none" viewBox="0 0 56 57" id="arrow" xmlns="http://www.w3.org/2000/svg"><path d="M35 14.5L21.707 27.793c-.333.333-.5.5-.5.707 0 .207.167.374.5.707L35 42.5"/></svg><svg viewBox="0 0 20 20" id="chat" xmlns="http://www.w3.org/2000/svg"><path fill-rule="evenodd" clip-rule="evenodd" d="M0 10.015C0 4.747 4.21 0 10.02 0 15.7 0 20 4.657 20 9.985 20 16.165 14.96 20 10 20c-1.64 0-3.46-.44-4.92-1.302-.51-.31-.94-.54-1.49-.36l-2.02.6c-.51.16-.97-.24-.82-.78l.67-2.244c.11-.31.09-.641-.07-.902C.49 13.43 0 11.697 0 10.015zm8.7 0c0 .711.57 1.282 1.28 1.292.71 0 1.28-.58 1.28-1.282 0-.711-.57-1.282-1.28-1.282-.7-.01-1.28.571-1.28 1.272zm4.61.01c0 .701.57 1.282 1.28 1.282.71 0 1.28-.58 1.28-1.282 0-.711-.57-1.282-1.28-1.282-.71 0-1.28.571-1.28 1.282zm-7.94 1.282c-.7 0-1.28-.58-1.28-1.282 0-.711.57-1.282 1.28-1.282.71 0 1.28.571 1.28 1.282a1.29 1.29 0 01-1.28 1.282z"/></svg><svg viewBox="0 0 24 24" id="close" xmlns="http://www.w3.org/2000/svg"><path fill-rule="evenodd" clip-rule="evenodd" d="M19.207 6.207a1 1 0 00-1.414-1.414L12 10.586 6.207 4.793a1 1 0 00-1.414 1.414L10.586 12l-5.793 5.793a1 1 0 101.414 1.414L12 13.414l5.793 5.793a1 1 0 001.414-1.414L13.414 12l5.793-5.793z"/></svg><svg viewBox="0 0 48 48" id="facebook-ng" xmlns="http://www.w3.org/2000/svg"><g clip-path="url(#dclip0_745_1178)"><path d="M48 24C48 10.745 37.255 0 24 0S0 10.745 0 24c0 11.979 8.776 21.908 20.25 23.708v-16.77h-6.094V24h6.094v-5.288c0-6.014 3.583-9.337 9.065-9.337 2.625 0 5.372.469 5.372.469v5.906h-3.026c-2.981 0-3.911 1.85-3.911 3.75V24h6.656l-1.064 6.938H27.75v16.77C39.224 45.908 48 35.978 48 24z"/></g><defs><clipPath id="dclip0_745_1178"><path d="M0 0h48v48H0z"/></clipPath></defs></svg><svg viewBox="0 0 48 48" id="instagram-ng" xmlns="http://www.w3.org/2000/svg"><g clip-path="url(#eclip0_745_1177)"><path d="M24 4.322c6.413 0 7.172.028 9.694.14 2.343.104 3.61.497 4.453.825 1.116.432 1.922.957 2.756 1.791.844.844 1.36 1.64 1.79 2.756.329.844.723 2.12.826 4.454.112 2.53.14 3.29.14 9.693 0 6.413-.028 7.172-.14 9.694-.103 2.344-.497 3.61-.825 4.453-.431 1.116-.957 1.922-1.79 2.756-.845.844-1.642 1.36-2.757 1.791-.844.328-2.119.722-4.453.825-2.532.112-3.29.14-9.694.14-6.413 0-7.172-.028-9.694-.14-2.343-.103-3.61-.497-4.453-.825-1.115-.431-1.922-.956-2.756-1.79-.844-.844-1.36-1.641-1.79-2.757-.329-.844-.723-2.119-.826-4.453-.112-2.531-.14-3.29-.14-9.694 0-6.412.028-7.172.14-9.694.103-2.343.497-3.609.825-4.453.431-1.115.957-1.921 1.79-2.756.845-.844 1.642-1.36 2.757-1.79.844-.329 2.119-.722 4.453-.825 2.522-.113 3.281-.141 9.694-.141zM24 0c-6.516 0-7.331.028-9.89.14-2.55.113-4.304.526-5.822 1.116-1.585.619-2.926 1.435-4.257 2.775-1.34 1.332-2.156 2.672-2.775 4.247C.666 9.806.253 11.55.141 14.1.028 16.669 0 17.484 0 24s.028 7.331.14 9.89c.113 2.55.526 4.304 1.116 5.822.619 1.585 1.435 2.925 2.775 4.257a11.732 11.732 0 004.247 2.765c1.528.591 3.272 1.003 5.822 1.116 2.56.112 3.375.14 9.89.14 6.516 0 7.332-.028 9.891-.14 2.55-.113 4.303-.525 5.822-1.116a11.732 11.732 0 004.247-2.765 11.732 11.732 0 002.766-4.247c.59-1.528 1.003-3.272 1.115-5.822.113-2.56.14-3.375.14-9.89 0-6.516-.027-7.332-.14-9.891-.112-2.55-.525-4.303-1.115-5.822-.591-1.594-1.407-2.935-2.747-4.266a11.732 11.732 0 00-4.247-2.765C38.194.675 36.45.262 33.9.15 31.331.028 30.516 0 24 0z"/><path d="M24 11.672c-6.806 0-12.328 5.522-12.328 12.328 0 6.806 5.522 12.328 12.328 12.328 6.806 0 12.328-5.522 12.328-12.328 0-6.806-5.522-12.328-12.328-12.328zm0 20.325a7.998 7.998 0 010-15.994 7.998 7.998 0 010 15.994zM39.694 11.184a2.879 2.879 0 11-2.878-2.878 2.885 2.885 0 012.878 2.878z"/></g><defs><clipPath id="eclip0_745_1177"><path d="M0 0h48v48H0z"/></clipPath></defs></svg><svg viewBox="0 0 47 48" id="mail-ng" xmlns="http://www.w3.org/2000/svg"><g clip-path="url(#fclip0_745_1179)"><path d="M42.4 5.5H5.6c-2.53 0-4.577 2.07-4.577 4.6L1 37.7c0 2.53 2.07 4.6 4.6 4.6h36.8c2.53 0 4.6-2.07 4.6-4.6V10.1c0-2.53-2.07-4.6-4.6-4.6zm0 32.2H5.6v-23L24 26.2l18.4-11.5v23zM24 21.6L5.6 10.1h36.8L24 21.6z"/></g><defs><clipPath id="fclip0_745_1179"><path transform="translate(0 .5)" d="M0 0h47v47H0z"/></clipPath></defs></svg><svg viewBox="0 0 20 20" id="menu" xmlns="http://www.w3.org/2000/svg"><path fill-rule="evenodd" d="M19 4a1 1 0 01-1 1H2a1 1 0 010-2h16a1 1 0 011 1zm0 6a1 1 0 01-1 1H2a1 1 0 110-2h16a1 1 0 011 1zm-1 7a1 1 0 100-2H2a1 1 0 100 2h16z"/></svg><svg viewBox="0 0 20 20" id="phone" xmlns="http://www.w3.org/2000/svg"><path fill-rule="evenodd" clip-rule="evenodd" d="M9.532 10.472c3.989 3.988 4.894-.625 7.434 1.913 2.448 2.448 3.856 2.938.753 6.04-.388.312-2.857 4.07-11.534-4.605C-2.493 5.144 1.262 2.672 1.574 2.284c3.11-3.11 3.592-1.695 6.04.753 2.54 2.54-2.071 3.447 1.918 7.435z"/></svg><svg fill="none" viewBox="0 0 33 32" id="telegram" xmlns="http://www.w3.org/2000/svg"><path fill-rule="evenodd" clip-rule="evenodd" d="M32.834 16c0 8.837-7.164 16-16 16-8.837 0-16-7.163-16-16s7.163-16 16-16 16 7.163 16 16zm-15.427-4.188c-1.556.647-4.666 1.987-9.33 4.02-.758.3-1.155.595-1.19.883-.062.487.548.679 1.378.94l.35.111c.817.266 1.916.576 2.487.589.519.01 1.097-.203 1.736-.641 4.357-2.942 6.607-4.429 6.748-4.461.1-.023.238-.051.332.032.093.083.084.24.074.283-.06.258-2.454 2.483-3.693 3.634-.386.36-.66.614-.716.672-.125.13-.253.254-.376.372-.759.732-1.328 1.28.032 2.176.653.43 1.176.787 1.698 1.142.57.388 1.137.775 1.872 1.257.188.123.367.25.54.374.664.473 1.26.898 1.995.83.428-.04.87-.441 1.094-1.64.53-2.834 1.572-8.974 1.812-11.504a2.822 2.822 0 00-.026-.63.674.674 0 00-.228-.433c-.192-.155-.488-.188-.62-.186-.602.01-1.525.332-5.969 2.18z" fill="#4F9FDA"/></svg><svg viewBox="0 0 48 48" id="telegram-ng" xmlns="http://www.w3.org/2000/svg"><g clip-path="url(#jclip0_745_1176)"><path fill-rule="evenodd" clip-rule="evenodd" d="M48 24c0 13.255-10.745 24-24 24S0 37.255 0 24 10.745 0 24 0s24 10.745 24 24zm-23.14-6.282c-2.334.97-7 2.98-13.996 6.029-1.136.451-1.731.893-1.786 1.326-.091.73.823 1.018 2.069 1.41.17.052.345.108.525.166 1.225.398 2.874.864 3.73.883.778.017 1.646-.304 2.603-.961 6.537-4.413 9.912-6.643 10.124-6.692.15-.033.356-.076.496.049.14.124.127.36.112.424-.09.386-3.68 3.724-5.539 5.452-.579.538-.99.92-1.074 1.007-.188.196-.38.38-.564.558-1.138 1.098-1.992 1.92.047 3.265.98.645 1.765 1.18 2.547 1.712.854.582 1.707 1.163 2.81 1.885.28.184.549.376.81.562.994.709 1.887 1.346 2.991 1.244.642-.059 1.304-.662 1.64-2.46.795-4.25 2.358-13.46 2.72-17.255a4.228 4.228 0 00-.04-.945c-.033-.187-.1-.453-.342-.65-.288-.233-.732-.282-.93-.279-.903.016-2.288.498-8.953 3.27z"/></g><defs><clipPath id="jclip0_745_1176"><path d="M0 0h48v48H0z"/></clipPath></defs></svg><svg fill="none" viewBox="0 0 31 32" id="viber" xmlns="http://www.w3.org/2000/svg"><path d="M29.317 7.093c-.546-1.946-1.624-3.486-3.207-4.575-1.997-1.376-4.295-1.864-6.279-2.16-2.745-.41-5.232-.467-7.6-.177-2.221.272-3.893.706-5.42 1.408-2.99 1.373-4.785 3.597-5.333 6.608a41.34 41.34 0 00-.55 4.043c-.24 2.913-.022 5.492.666 7.881.669 2.33 1.84 3.995 3.578 5.088.444.279 1.01.48 1.559.675.275.097.539.193.77.295v4.706a1.114 1.114 0 001.891.799l4.343-4.224c.19-.216.19-.216.384-.22 1.484-.03 3-.087 4.507-.168 1.825-.1 3.94-.276 5.932-1.107 1.823-.761 3.153-1.97 3.952-3.59.833-1.69 1.33-3.522 1.515-5.598.325-3.65.093-6.819-.708-9.684zm-7.562 13.893c-.436.714-1.09 1.207-1.857 1.527-.561.235-1.135.185-1.688-.05-4.646-1.965-8.287-5.063-10.695-9.515-.496-.918-.841-1.916-1.237-2.886-.082-.2-.075-.433-.111-.65.035-1.567 1.236-2.448 2.45-2.715.463-.103.874.061 1.218.39.952.91 1.705 1.963 2.272 3.145.248.518.136.977-.287 1.362a3.43 3.43 0 01-.273.226c-.964.725-1.105 1.273-.592 2.365.875 1.857 2.327 3.104 4.206 3.877.494.204.96.103 1.34-.298.05-.054.107-.106.145-.167.741-1.236 1.814-1.113 2.807-.408.652.463 1.284.95 1.929 1.423.979.721.97 1.398.373 2.375zM16.182 8.19c-.25 0-.5.02-.745.062a.762.762 0 11-.25-1.504 5.993 5.993 0 016.899 6.901.763.763 0 01-1.504-.252 4.467 4.467 0 00-4.4-5.207zm3.319 4.952a.762.762 0 01-1.523 0 2.288 2.288 0 00-2.286-2.285.762.762 0 010-1.523 3.812 3.812 0 013.809 3.808zm5.128.93a.76.76 0 01-.912.574.761.761 0 01-.575-.91 6.726 6.726 0 00-8.045-8.046.76.76 0 11-.337-1.485 8.183 8.183 0 011.833-.206 8.243 8.243 0 018.036 10.072z" fill="url(#kpaint0_linear_803_866)"/><defs><linearGradient id="kpaint0_linear_803_866" x1="15.5" y1="0" x2="15.5" y2="32" gradientUnits="userSpaceOnUse"><stop stop-color="#6D53D0"/><stop offset="1" stop-color="#4F3D9C"/></linearGradient></defs></svg><svg viewBox="0 0 50 50" id="viber-ng" xmlns="http://www.w3.org/2000/svg"><g clip-path="url(#lclip0_745_1182)"><path d="M46.667 11.123c-.855-3.05-2.547-5.466-5.029-7.174-3.132-2.158-6.735-2.923-9.846-3.387C27.486-.08 23.587-.17 19.873.283c-3.484.427-6.106 1.109-8.5 2.208C6.683 4.645 3.87 8.133 3.01 12.854a64.833 64.833 0 00-.861 6.34c-.377 4.569-.036 8.613 1.043 12.36 1.05 3.653 2.886 6.265 5.612 7.98.697.436 1.583.752 2.445 1.057.43.153.845.303 1.206.462v7.382a1.747 1.747 0 002.967 1.252l6.81-6.624c.297-.339.297-.339.603-.345 2.327-.046 4.704-.136 7.067-.264 2.863-.157 6.18-.432 9.303-1.735 2.858-1.194 4.945-3.089 6.198-5.63 1.307-2.65 2.084-5.523 2.375-8.78.51-5.724.146-10.692-1.11-15.186zM34.809 32.911c-.684 1.119-1.709 1.892-2.913 2.394-.88.368-1.78.29-2.647-.077-7.285-3.082-12.995-7.942-16.772-14.924-.778-1.438-1.32-3.004-1.94-4.524-.128-.314-.117-.68-.174-1.02.055-2.458 1.939-3.84 3.841-4.258.728-.161 1.372.096 1.912.613a16.813 16.813 0 013.563 4.93c.388.814.213 1.533-.45 2.137-.136.126-.28.243-.429.354-1.512 1.137-1.733 1.996-.928 3.709 1.372 2.913 3.649 4.868 6.595 6.08.776.32 1.508.162 2.101-.468.08-.084.17-.165.228-.261 1.163-1.939 2.846-1.746 4.402-.64 1.022.726 2.013 1.49 3.025 2.231 1.535 1.131 1.523 2.194.586 3.724zm-8.74-20.067c-.392 0-.785.031-1.17.096a1.195 1.195 0 11-.393-2.359 9.742 9.742 0 011.563-.127c5.175 0 9.386 4.211 9.386 9.386 0 .525-.044 1.052-.13 1.564a1.196 1.196 0 01-1.376.981 1.197 1.197 0 01-.98-1.376c.065-.38.096-.774.096-1.167 0-3.86-3.139-6.998-6.996-6.998zm5.204 7.766a1.195 1.195 0 01-2.388 0 3.588 3.588 0 00-3.584-3.584 1.195 1.195 0 010-2.388c3.291-.002 5.972 2.679 5.972 5.972zm8.042 1.457a1.192 1.192 0 01-1.43.901 1.194 1.194 0 01-.901-1.428c.173-.763.26-1.551.26-2.342 0-5.808-4.725-10.536-10.536-10.536-.792 0-1.578.088-2.341.261a1.192 1.192 0 01-1.429-.9 1.192 1.192 0 01.902-1.429 12.834 12.834 0 012.873-.322c7.126 0 12.924 5.798 12.924 12.924 0 .97-.109 1.937-.322 2.871z"/></g><defs><clipPath id="lclip0_745_1182"><path d="M0 0h50v50H0z"/></clipPath></defs></svg></svg>