<svg width="61" height="60" viewBox="0 0 61 60" fill="none" xmlns="http://www.w3.org/2000/svg">
<path d="M28.6602 46.5C29.0469 47.0977 29.7266 47.4961 30.5 47.4961C31.2734 47.4961 31.9531 47.0977 32.3516 46.5L45.2656 26.5547C47 23.8711 48.0078 20.918 48.0078 17.4961C47.9961 7.60547 40.2266 0 30.5 0C20.7734 0 13.0039 7.60547 13.0039 17.4961C13.0039 20.918 14.0117 23.8711 15.7461 26.5547L28.6602 46.5ZM30.5 7.5C36.0195 7.5 40.4961 11.9766 40.4961 17.4961C40.4961 23.0156 36.0195 27.4922 30.5 27.4922C24.9805 27.4922 20.5039 23.0156 20.5039 17.4961C20.5039 11.9766 24.9805 7.5 30.5 7.5ZM43.3203 37.9102L30.5 54.9961L17.6797 37.9102C13.2969 40.207 10.4961 43.6406 10.4961 47.4961C10.4961 54.3984 19.4492 60 30.5 60C41.5508 60 50.5039 54.3984 50.5039 47.4961C50.5039 43.6406 47.7031 40.207 43.3203 37.9102Z" fill="black" fill-opacity="0.75"/>
</svg>
