<svg width="226" height="145" viewBox="0 0 226 145" fill="none" xmlns="http://www.w3.org/2000/svg">
<path d="M15.0012 64.1228C15.0012 64.1228 132.088 -19.1248 201.603 134.417" stroke="#B9ECDF" stroke-width="48.8957"/>
<path d="M55.9322 59.0052L50.7778 60.6701L48.4846 53.5704L39.4863 42.364L44.8821 40.6212L47.4539 44.1654C48.0823 45.0915 48.6581 46.0973 49.2655 47.2496L49.5637 47.1533C49.3822 45.8633 49.2609 44.7108 49.205 43.6155L49.1278 39.2498L54.3674 37.5574L53.639 51.9055L55.9322 59.0052Z" fill="black"/>
<path d="M66.4229 56.8281C62.1652 57.6806 59.3261 55.5097 58.4971 51.369L57.9757 48.7646C57.138 44.58 58.9313 41.5274 63.189 40.675C67.4614 39.8197 70.3063 41.9437 71.1441 46.1283L71.6655 48.7327C72.4944 52.8734 70.6807 55.9757 66.4229 56.8281ZM65.6935 53.1849C66.5275 53.0179 66.7966 52.2336 66.4949 50.7266L65.6103 46.3079C65.3027 44.7716 64.7524 44.1513 63.9184 44.3183C63.099 44.4823 62.8446 45.2637 63.1522 46.8L64.0368 51.2187C64.3385 52.7257 64.8742 53.349 65.6935 53.1849Z" fill="black"/>
<path d="M79.489 38.8888L84.8173 38.507L85.9371 54.1348L80.8023 54.5027C80.7478 53.5342 80.8338 52.8548 81.2885 51.4759L80.9961 51.3622C80.0993 53.6704 78.6888 54.8636 76.5753 55.015C74.1642 55.1878 72.9318 54.0643 72.7526 51.5639L71.8834 39.4337L77.2118 39.0519L77.9924 49.9468C78.0522 50.7802 78.3786 51.1608 78.9591 51.1192C79.8819 51.0531 80.2782 49.9027 80.1342 47.8934L79.489 38.8888Z" fill="black"/>
<path d="M99.491 55.5854C95.0763 54.9399 93.2952 52.3722 93.9816 47.677L94.3313 45.2851C95.0177 40.5899 97.4741 38.6417 101.889 39.2871C106.171 39.9131 108.044 42.1625 107.413 46.6848L102.073 46.2812C102.416 43.828 102.151 43.0654 101.353 42.9488C100.571 42.8344 100.113 43.4913 99.8885 45.0269L99.2301 49.5301C99.0078 51.0509 99.2733 51.8136 100.071 51.9301C100.868 52.0467 101.364 51.3351 101.744 48.7365L107.075 49.923C106.308 54.5462 103.699 56.2005 99.491 55.5854Z" fill="black"/>
<path d="M110.133 57.7195C107.755 56.9757 106.845 54.9869 107.602 52.5658L107.62 52.5089C108.711 49.0197 111.777 48.9624 114.149 49.0786L116.506 49.1903L116.956 47.7519C117.201 46.9686 117.079 46.5083 116.509 46.3302C115.868 46.1298 115.338 46.5267 114.734 48.5579L109.744 46.7161C110.867 42.9243 113.455 41.4978 117.67 42.8161C121.416 43.9873 123.025 46.2415 122.041 49.3889L119.952 56.0683C119.761 56.6807 119.883 56.938 120.353 57.0849L120.752 57.2096L119.171 60.4673C118.901 60.4299 118.55 60.3515 118.294 60.2713C115.289 59.3316 114.615 58.136 115.61 55.8049L115.343 55.6588C114.16 57.7434 112.54 58.4721 110.133 57.7195ZM113.468 54.6036C114.252 54.8486 114.943 54.1891 115.33 52.9501L115.637 51.9674L114.85 51.9868C114.062 52.0063 113.294 52.3604 113.032 53.2007L113 53.3004C112.773 54.0267 112.942 54.4389 113.468 54.6036Z" fill="black"/>
<path d="M123.407 62.152L118.598 59.8255L125.422 45.7216L130.056 47.9636C129.634 48.8367 129.207 49.3762 128.138 50.3511L128.335 50.5955C130.25 49.0355 132.068 48.7048 133.975 49.6277C136.151 50.6804 136.659 52.2689 135.567 54.5255L130.271 65.4728L125.462 63.1463L130.219 53.3138C130.583 52.5616 130.49 52.069 129.966 51.8155C129.147 51.4191 128.216 52.2121 127.339 54.0255L123.407 62.152Z" fill="black"/>
<path d="M139.751 72.0117C137.621 70.3504 137.799 67.9151 140.36 64.6327L142.636 61.715C145.197 58.4325 147.516 57.6677 149.622 59.3107C151.375 60.6783 151.61 62.414 150.989 64.617L151.317 64.6829C151.883 62.9863 152.462 61.9048 153.462 60.6225L155.729 57.7165L159.941 61.0024L147.091 77.4734L142.974 74.2609C143.364 73.8087 144.167 73.1673 145.398 72.3669L145.233 72.0682C143.283 73.234 141.575 73.4344 139.751 72.0117ZM143.904 70.6908C144.61 71.2415 145.523 70.7992 146.67 69.3286L148.699 66.7285C149.846 65.2579 150.092 64.2387 149.386 63.688C148.763 63.2016 147.977 63.5538 147.022 64.7773L144.379 68.1656C143.434 69.3774 143.292 70.2135 143.904 70.6908Z" fill="black"/>
<path d="M152.495 83.2817C149.421 80.2147 149.649 76.6481 152.632 73.6588L154.508 71.7786C157.522 68.7575 161.057 68.5531 164.131 71.6201C167.215 74.6977 167.029 78.2431 164.015 81.2642L162.139 83.1444C159.156 86.1337 155.569 86.3487 152.495 83.2817ZM155.119 80.6515C155.721 81.2523 156.523 81.0404 157.609 79.9524L160.792 76.7623C161.898 75.6532 162.108 74.8511 161.506 74.2503C160.915 73.6601 160.124 73.8826 159.017 74.9917L155.834 78.1817C154.748 79.2697 154.528 80.0613 155.119 80.6515Z" fill="black"/>
<path d="M179.116 87.5837L175.829 83.3726L178.794 81.0589L182.08 85.2701L179.116 87.5837ZM165.812 97.9676L162.525 93.7564L174.876 84.1162L178.163 88.3274L165.812 97.9676Z" fill="black"/>
<path d="M169.215 103.265C167.474 100.805 167.843 98.7162 170.389 96.915L176.565 92.5458L175.617 91.2058L178.748 88.9911L179.695 90.331L182.193 88.5644L186.496 92.0637L182.781 94.6921L184.323 96.8726L181.193 99.0874L179.65 96.9069L173.973 100.923C173.34 101.371 173.267 101.861 173.689 102.458C173.956 102.836 174.365 103.259 174.882 103.68L171.635 105.575C170.733 105.024 169.887 104.216 169.215 103.265Z" fill="black"/>
<path d="M180.73 108.823L178.153 104.768L190.255 96.407L193.44 101.42L180.73 108.823ZM172.638 107.635L176.958 104.89L180.111 109.853L175.791 112.597L172.638 107.635Z" fill="black"/>
</svg>
