<svg width="293" height="82" viewBox="0 0 293 82" fill="none" xmlns="http://www.w3.org/2000/svg">
<path d="M1.4827 68.8802C0.415721 68.5945 -0.217638 67.4979 0.0680568 66.4309C0.353752 65.364 1.45031 64.7306 2.5173 65.0163L1.4827 68.8802ZM292.353 18.6223C292.74 19.6567 292.216 20.8093 291.181 21.1967L274.325 27.5099C273.291 27.8973 272.138 27.3728 271.751 26.3384C271.363 25.304 271.888 24.1514 272.922 23.764L287.906 18.1522L282.294 3.16863C281.906 2.13424 282.431 0.981632 283.465 0.59422C284.5 0.206816 285.652 0.731303 286.04 1.7657L292.353 18.6223ZM2.5173 65.0163C93.4962 89.3768 154.765 72.8438 198.47 52.6176C209.419 47.5504 219.279 42.2449 228.257 37.2682C237.209 32.3061 245.347 27.6343 252.74 23.9068C267.398 16.5159 279.989 12.3526 291.308 17.5033L289.652 21.1441C280.231 16.8572 269.267 20.053 254.54 27.4785C247.241 31.159 239.229 35.7597 230.196 40.7667C221.19 45.7593 211.231 51.1197 200.15 56.2477C155.735 76.8027 93.5038 93.5197 1.4827 68.8802L2.5173 65.0163Z" fill="black"/>
</svg>
