<svg width="302" height="49" viewBox="0 0 302 49" fill="none" xmlns="http://www.w3.org/2000/svg">
<path d="M3.14288 43.0163C2.23643 43.6475 0.989913 43.4243 0.358716 42.5179C-0.272482 41.6114 -0.0493411 40.3649 0.857115 39.7337L3.14288 43.0163ZM301.4 40.8163C301.709 41.8768 301.1 42.9869 300.039 43.2956L282.757 48.3272C281.696 48.636 280.586 48.0266 280.277 46.966C279.969 45.9055 280.578 44.7955 281.639 44.4867L297.001 40.0142L292.528 24.652C292.219 23.5915 292.829 22.4814 293.889 22.1727C294.95 21.8639 296.06 22.4733 296.369 23.5339L301.4 40.8163ZM0.857115 39.7337C59.1885 -0.88447 127.772 -4.35564 184.779 3.98615C241.785 12.3277 287.506 32.5198 300.443 39.6222L298.518 43.1285C285.954 36.2307 240.685 16.2093 184.2 7.944C127.718 -0.321035 60.3115 3.20771 3.14288 43.0163L0.857115 39.7337Z" fill="black"/>
</svg>
