<svg width="103" height="122" viewBox="0 0 103 122" fill="none" xmlns="http://www.w3.org/2000/svg">
<path d="M101.654 2.46623C101.462 1.37853 100.424 0.652642 99.3365 0.84492C98.2487 1.0372 97.5229 2.07483 97.7151 3.16253L101.654 2.46623ZM6.54425 119.774C6.92508 120.811 8.07432 121.342 9.11116 120.962L26.0075 114.756C27.0444 114.375 27.5762 113.226 27.1954 112.189C26.8145 111.152 25.6653 110.62 24.6284 111.001L9.60945 116.517L4.09311 101.498C3.71228 100.462 2.56304 99.9297 1.52619 100.311C0.489351 100.691 -0.0424649 101.841 0.338358 102.877L6.54425 119.774ZM97.7151 3.16253C100.993 21.7043 97.7135 36.5505 90.8524 48.7953C83.9636 61.0895 73.3992 70.8748 61.939 79.1289C50.4533 87.4012 38.2669 94.005 28.0638 100.113C22.9977 103.146 18.4052 106.068 14.7273 108.988C11.0745 111.888 8.14258 114.925 6.60654 118.244L10.2367 119.924C11.3799 117.454 13.7291 114.888 17.2144 112.121C20.6746 109.374 25.0772 106.563 30.1185 103.545C40.1302 97.5516 52.6076 90.7791 64.2767 82.3747C75.9711 73.952 87.0524 63.7602 94.3419 50.7506C101.659 37.6917 105.091 21.9076 101.654 2.46623L97.7151 3.16253Z" fill="black"/>
</svg>
