<svg width="61" height="61" viewBox="0 0 61 61" fill="none" xmlns="http://www.w3.org/2000/svg">
<path fill-rule="evenodd" clip-rule="evenodd" d="M28.143 44.1612C29.1378 46.4647 29.939 48.8465 30.5384 51.2826C32.2864 58.404 25.7476 59.9254 25.7476 59.9254L18.4579 47.8255L5.65885 44.2195C5.65885 44.2195 6.79827 37.3312 12.5213 37.5772C14.8584 37.6743 17.4415 37.9203 19.6815 38.1793C21.3518 35.6609 23.5271 32.3527 25.8642 28.915L4.5 21.5866C4.5 21.5866 5.7948 11.0599 16.8653 13.4488C21.5201 14.4523 28.6739 15.8701 34.0926 16.9253C35.9377 14.3357 37.5886 12.0763 38.851 10.5031C44.082 4.02266 52.3234 -1.10474 55.2108 1.20648C58.0982 3.51769 55.7352 13.0021 50.4848 19.5602C46.6716 24.3769 34.4552 37.4542 28.143 44.1612ZM53.0161 41.6946C57.03 50.0396 47.319 55.549 47.319 55.549L37.8475 40.6588L47.0924 29.5688C49.0864 33.6086 51.2617 38.0886 53.0161 41.7205V41.6946Z" fill="black" fill-opacity="0.75"/>
</svg>
