<svg width="60" height="60" viewBox="0 0 60 60" fill="none" xmlns="http://www.w3.org/2000/svg">
<path d="M24.5916 5.08495C24.8729 5.18064 25.1477 5.29446 25.4142 5.42571L28.6211 7.00457C29.4914 7.43308 30.5114 7.43308 31.3818 7.00457L34.5886 5.42571C37.9951 3.74855 42.1162 5.15044 43.7933 8.55691L43.977 8.96272L44.1341 9.37957L45.2852 12.7636C45.5976 13.682 46.3189 14.4032 47.2373 14.7157L50.6213 15.8668C54.216 17.0896 56.1388 20.995 54.9159 24.5896C54.8203 24.8709 54.7064 25.1457 54.5752 25.4123L52.9963 28.6191C52.5678 29.4895 52.5678 30.5095 52.9963 31.3798L54.5752 34.5866C56.2523 37.9931 54.8505 42.1142 51.444 43.7914C51.1774 43.9226 50.9026 44.0364 50.6213 44.1321L47.2373 45.2833C46.3189 45.5957 45.5976 46.3169 45.2852 47.2354L44.1341 50.6194C42.9113 54.214 39.0059 56.1368 35.4113 54.914C35.13 54.8183 34.8552 54.7045 34.5886 54.5732L31.3818 52.9944C30.5114 52.5659 29.4914 52.5659 28.6211 52.9944L25.4142 54.5732C22.0078 56.2504 17.8867 54.8485 16.2095 51.442C16.0783 51.1755 15.9645 50.9007 15.8688 50.6194L14.7176 47.2354C14.4052 46.3169 13.684 45.5957 12.7655 45.2833L9.38152 44.1321C5.78686 42.9093 3.86409 39.004 5.0869 35.4093C5.18259 35.128 5.29642 34.8532 5.42766 34.5866L7.00652 31.3798C7.43503 30.5095 7.43503 29.4895 7.00652 28.6191L5.42766 25.4123C3.75051 22.0058 5.15239 17.8847 8.55886 16.2076C8.82543 16.0763 9.10023 15.9625 9.38152 15.8668L12.7655 14.7157C13.684 14.4032 14.4052 13.682 14.7176 12.7636L15.8688 9.37957C17.0916 5.78491 20.9969 3.86214 24.5916 5.08495ZM38.6756 22.4236L25.1274 35.9718L20.1918 30.0491C19.5289 29.2536 18.3466 29.1461 17.5511 29.8091C16.7556 30.472 16.6481 31.6543 17.311 32.4498L23.561 39.9498C24.2669 40.7968 25.5476 40.8549 26.3272 40.0753L41.3273 25.0753C42.0595 24.3431 42.0595 23.1559 41.3273 22.4236C40.595 21.6914 39.4078 21.6914 38.6756 22.4236Z" fill="black" fill-opacity="0.75"/>
</svg>
