<svg width="33" height="32" viewBox="0 0 33 32" fill="none" xmlns="http://www.w3.org/2000/svg">
<path fill-rule="evenodd" clip-rule="evenodd" d="M32.834 16C32.834 24.8366 25.6705 32 16.834 32C7.99743 32 0.833984 24.8366 0.833984 16C0.833984 7.16344 7.99743 0 16.834 0C25.6705 0 32.834 7.16344 32.834 16ZM17.4074 11.8119C15.8511 12.4592 12.7408 13.7989 8.07651 15.8311C7.31909 16.1323 6.92233 16.427 6.88621 16.7151C6.82517 17.202 7.43493 17.3937 8.26528 17.6548C8.37823 17.6903 8.49526 17.7271 8.61523 17.7661C9.43217 18.0317 10.5311 18.3424 11.1024 18.3547C11.6206 18.3659 12.199 18.1523 12.8375 17.7138C17.1955 14.772 19.4452 13.2851 19.5864 13.253C19.686 13.2304 19.8241 13.202 19.9177 13.2851C20.0112 13.3683 20.002 13.5258 19.9921 13.568C19.9317 13.8255 17.5382 16.0508 16.2995 17.2024C15.9133 17.5614 15.6394 17.816 15.5834 17.8742C15.458 18.0045 15.3302 18.1277 15.2073 18.2461C14.4483 18.9778 13.8792 19.5264 15.2388 20.4224C15.8922 20.8529 16.415 21.209 16.9366 21.5642C17.5062 21.9521 18.0744 22.339 18.8095 22.8209C18.9968 22.9437 19.1756 23.0712 19.3498 23.1954C20.0127 23.668 20.6083 24.0926 21.3441 24.0248C21.7716 23.9855 22.2133 23.5835 22.4376 22.3845C22.9676 19.5509 24.0095 13.4113 24.2503 10.8813C24.2714 10.6596 24.2448 10.376 24.2235 10.2514C24.2022 10.1269 24.1577 9.94948 23.9958 9.81813C23.8041 9.66258 23.5082 9.62978 23.3758 9.63211C22.774 9.64271 21.8507 9.96376 17.4074 11.8119Z" fill="#4F9FDA"/>
</svg>
