<svg width="31" height="32" viewBox="0 0 31 32" fill="none" xmlns="http://www.w3.org/2000/svg">
<g id="Frame 3474145">
<path id="Vector" d="M29.3167 7.09286C28.7714 5.14749 27.6927 3.60746 26.11 2.51811C24.1126 1.14208 21.8153 0.654072 19.8312 0.358066C17.0858 -0.0512751 14.5991 -0.10861 12.2311 0.180729C10.0097 0.452734 8.33768 0.887409 6.81099 1.58876C3.82026 2.96212 2.02556 5.18616 1.47755 8.19688C1.21088 9.65824 1.03221 10.9796 0.928207 12.2396C0.688203 15.153 0.90554 17.7317 1.59355 20.1211C2.2629 22.4505 3.43359 24.1158 5.17229 25.2092C5.6163 25.4879 6.18164 25.6892 6.73098 25.8839C7.00566 25.9812 7.26966 26.0772 7.50033 26.1786V30.8853C7.50033 31.5013 7.99901 32 8.61502 32C8.90569 32 9.18436 31.8867 9.39237 31.684L13.7351 27.4599C13.9245 27.2439 13.9245 27.2439 14.1191 27.2399C15.6032 27.2106 17.1192 27.1532 18.6259 27.0719C20.4512 26.9719 22.566 26.7959 24.558 25.9652C26.3807 25.2039 27.7114 23.9958 28.5101 22.3758C29.3434 20.6851 29.8394 18.8531 30.0248 16.777C30.3501 13.1263 30.1181 9.95825 29.3167 7.09286ZM21.7553 20.9865C21.3193 21.6998 20.6659 22.1931 19.8979 22.5132C19.3366 22.7478 18.7632 22.6985 18.2099 22.4638C13.5644 20.4984 9.92304 17.3997 7.515 12.9476C7.01899 12.0303 6.67365 11.0316 6.27764 10.0623C6.19631 9.86225 6.20297 9.62891 6.16697 9.41157C6.20164 7.84488 7.403 6.96352 8.61635 6.69685C9.08036 6.59418 9.49104 6.75819 9.83504 7.08753C10.7871 7.99688 11.5404 9.05023 12.1071 10.2316C12.3551 10.7503 12.2431 11.2089 11.8204 11.5943C11.7337 11.6743 11.6417 11.7489 11.5471 11.8196C10.5831 12.545 10.4417 13.093 10.9551 14.185C11.8297 16.0424 13.2818 17.2891 15.1605 18.0624C15.6552 18.2664 16.1218 18.1651 16.5005 17.7637C16.5512 17.7104 16.6085 17.6584 16.6458 17.5971C17.3872 16.361 18.4605 16.4837 19.4526 17.1891C20.1046 17.6517 20.7366 18.1397 21.3819 18.6117C22.3606 19.3331 22.3526 20.0104 21.7553 20.9865ZM16.1818 8.19021C15.9325 8.19021 15.6818 8.21022 15.4365 8.25155C15.0205 8.32222 14.6285 8.04088 14.5591 7.62487C14.4898 7.2102 14.7698 6.81686 15.1858 6.74752C15.5125 6.69419 15.8485 6.66619 16.1818 6.66619C19.4819 6.66619 22.1673 9.35157 22.1673 12.6516C22.1673 12.9863 22.1393 13.3223 22.0846 13.649C22.0219 14.021 21.6993 14.285 21.3339 14.285C21.2926 14.285 21.2499 14.2823 21.2073 14.2743C20.7926 14.2037 20.5126 13.8117 20.5819 13.397C20.6232 13.1543 20.6432 12.9036 20.6432 12.653C20.6432 10.1916 18.6419 8.19021 16.1818 8.19021ZM19.5006 13.1423C19.5006 13.5623 19.1592 13.9037 18.7392 13.9037C18.3192 13.9037 17.9779 13.5623 17.9779 13.1423C17.9779 11.8823 16.9525 10.8569 15.6925 10.8569C15.2725 10.8569 14.9311 10.5156 14.9311 10.0956C14.9311 9.67558 15.2725 9.33424 15.6925 9.33424C17.7912 9.3329 19.5006 11.0423 19.5006 13.1423ZM24.6287 14.0717C24.5487 14.4263 24.2353 14.665 23.886 14.665C23.83 14.665 23.7726 14.6583 23.7166 14.6463C23.306 14.553 23.0486 14.145 23.142 13.7357C23.2526 13.249 23.3086 12.7463 23.3086 12.2423C23.3086 8.53822 20.2952 5.5235 16.5898 5.5235C16.0845 5.5235 15.5832 5.5795 15.0965 5.69017C14.6885 5.78484 14.2778 5.52616 14.1858 5.11549C14.0925 4.70481 14.3498 4.29681 14.7605 4.20481C15.3578 4.06747 15.9738 3.99947 16.5925 3.99947C21.1366 3.99947 24.834 7.69687 24.834 12.241C24.834 12.8596 24.7647 13.4756 24.6287 14.0717Z" fill="url(#paint0_linear_803_866)"/>
</g>
<defs>
<linearGradient id="paint0_linear_803_866" x1="15.5004" y1="0" x2="15.5004" y2="32" gradientUnits="userSpaceOnUse">
<stop stop-color="#6D53D0"/>
<stop offset="1" stop-color="#4F3D9C"/>
</linearGradient>
</defs>
</svg>
